<svg width="20" height="20" viewBox="0 0 20 20" fill="none" xmlns="http://www.w3.org/2000/svg">
<path d="M9.99967 10.8346C10.4599 10.8346 10.833 10.4615 10.833 10.0013C10.833 9.54106 10.4599 9.16797 9.99967 9.16797C9.53944 9.16797 9.16634 9.54106 9.16634 10.0013C9.16634 10.4615 9.53944 10.8346 9.99967 10.8346Z" stroke="#344054" stroke-width="1.67" stroke-linecap="round" stroke-linejoin="round"/>
<path d="M15.833 10.8346C16.2932 10.8346 16.6663 10.4615 16.6663 10.0013C16.6663 9.54106 16.2932 9.16797 15.833 9.16797C15.3728 9.16797 14.9997 9.54106 14.9997 10.0013C14.9997 10.4615 15.3728 10.8346 15.833 10.8346Z" stroke="#344054" stroke-width="1.67" stroke-linecap="round" stroke-linejoin="round"/>
<path d="M4.16634 10.8346C4.62658 10.8346 4.99967 10.4615 4.99967 10.0013C4.99967 9.54106 4.62658 9.16797 4.16634 9.16797C3.7061 9.16797 3.33301 9.54106 3.33301 10.0013C3.33301 10.4615 3.7061 10.8346 4.16634 10.8346Z" stroke="#344054" stroke-width="1.67" stroke-linecap="round" stroke-linejoin="round"/>
</svg>
