<svg width="300" height="300" viewBox="0 0 300 300" fill="none" xmlns="http://www.w3.org/2000/svg">
<path fill-rule="evenodd" clip-rule="evenodd" d="M91.1216 60.9609C88.7989 60.9609 86.916 62.8439 86.916 65.1666V199.483C103.034 195.547 121.375 193.237 141.923 193.237C170.161 193.237 193.64 196.014 213.084 200.584V65.1665C213.084 62.8439 211.201 60.9609 208.879 60.9609H91.1216Z" fill="url(#paint0_linear_347_8062)"/>
<rect opacity="0.800525" x="94.8018" y="68.8438" width="110.397" height="138.759" rx="4.20561" fill="url(#paint1_linear_347_8062)"/>
<rect x="102.337" y="79.707" width="94.6262" height="61.4954" fill="url(#paint2_linear_347_8062)"/>
<rect x="102.687" y="150.84" width="94.6262" height="9.46083" fill="url(#paint3_linear_347_8062)"/>
<rect x="102.687" y="172.914" width="94.6262" height="9.46083" fill="url(#paint4_linear_347_8062)"/>
<path fill-rule="evenodd" clip-rule="evenodd" d="M173.251 153.995C175.163 154.04 176.91 152.94 177.662 151.218C178.413 149.496 178.018 147.499 176.663 146.177L164.72 134.452C162.892 132.662 159.928 132.662 158.1 134.452C156.273 136.241 156.273 139.143 158.1 140.932L170.077 152.625C170.914 153.466 172.052 153.957 173.251 153.995Z" fill="url(#paint5_linear_347_8062)"/>
<path fill-rule="evenodd" clip-rule="evenodd" d="M128.578 136.284C120.882 128.629 119.772 116.712 125.927 107.817C132.081 98.9227 143.788 95.5263 153.89 99.7044C163.992 103.883 169.678 114.472 167.472 125C165.266 135.528 155.782 143.063 144.818 143.001C138.71 142.962 132.868 140.546 128.578 136.284Z" fill="url(#paint6_linear_347_8062)"/>
<path fill-rule="evenodd" clip-rule="evenodd" d="M131.627 107.434C124.358 114.572 124.365 126.134 131.643 133.264C138.92 140.393 150.716 140.393 157.993 133.264C165.271 126.134 165.278 114.572 158.008 107.434C150.719 100.303 138.916 100.303 131.627 107.434Z" fill="white"/>
<mask id="mask0_347_8062" style="mask-type:luminance" maskUnits="userSpaceOnUse" x="126" y="102" width="38" height="37">
<path fill-rule="evenodd" clip-rule="evenodd" d="M131.627 107.434C124.358 114.572 124.365 126.134 131.643 133.264C138.92 140.393 150.716 140.393 157.993 133.264C165.271 126.134 165.278 114.572 158.008 107.434C150.719 100.303 138.916 100.303 131.627 107.434Z" fill="white"/>
</mask>
<g mask="url(#mask0_347_8062)">
<path d="M161.712 107.074C161.712 124.789 153.083 138.472 140.742 146.2C128.401 153.927 163.441 141.202 163.441 141.202L170.366 116.822C170.366 116.822 161.712 89.3598 161.712 107.074Z" fill="url(#paint7_linear_347_8062)"/>
</g>
<path d="M298.752 279.153C305.987 264.834 285.308 193.238 141.923 193.238C38.4274 193.238 -9.07413 251.841 1.42751 281.539L298.752 279.153Z" fill="url(#paint8_radial_347_8062)"/>
<mask id="mask1_347_8062" style="mask-type:luminance" maskUnits="userSpaceOnUse" x="0" y="193" width="300" height="89">
<path d="M298.752 279.153C305.987 264.834 285.308 193.238 141.923 193.238C38.4274 193.238 -9.07413 251.841 1.42751 281.539L298.752 279.153Z" fill="white"/>
</mask>
<g mask="url(#mask1_347_8062)">
<ellipse opacity="0.671968" cx="132.652" cy="210.232" rx="7.88551" ry="4.38001" fill="url(#paint9_linear_347_8062)"/>
<ellipse opacity="0.729957" cx="200.292" cy="226.7" rx="12.4416" ry="6.83282" fill="url(#paint10_linear_347_8062)"/>
<ellipse opacity="0.729957" cx="58.7033" cy="208.481" rx="12.4416" ry="6.83282" fill="url(#paint11_linear_347_8062)"/>
</g>
<path d="M200.062 206.982L226.941 217.487L233.114 208.655L206.071 202.367L200.062 206.982Z" fill="url(#paint12_linear_347_8062)"/>
<path d="M198.6 162L217.066 163.456L212.965 203.623C212.965 203.623 212.606 204.025 211.735 203.869C210.864 203.713 209.95 203.228 209.95 203.228L207.203 171.296C207.203 171.296 205.615 182.587 205.726 185.764C205.809 188.157 206.628 191.077 207.066 193.575C207.443 195.724 208.236 200.861 208.236 200.861C208.236 200.861 207.299 201.289 206.8 201.385C206.302 201.482 205.663 200.95 205.663 200.95C205.663 200.95 199.188 188.382 199.105 185.995C199.022 183.608 198.6 162 198.6 162Z" fill="url(#paint13_linear_347_8062)"/>
<path d="M205.375 200.893C205.375 200.893 204.553 202.374 203.531 203.277C202.509 204.179 200.493 205.258 200.033 205.747C199.574 206.237 200.076 206.959 200.076 206.959L205.017 206.787L208.966 203.446L208.414 200.263L205.375 200.893Z" fill="#677285"/>
<path d="M213.43 202.608L214.584 205.808C214.584 205.808 212.69 207.275 210.072 207.683C207.455 208.092 205.651 207.465 205.651 207.465C205.651 207.465 205.178 206.512 206.069 206.105C206.478 205.918 207.395 205.141 208.2 204.146C208.564 203.697 209.932 202.731 209.932 202.731L213.43 202.608Z" fill="#677285"/>
<path d="M221.702 141.057C221.702 141.057 223.215 143.36 224.144 142.744C225.072 142.128 230.865 136.189 230.865 136.189C230.865 136.189 232.589 134.862 232.908 135.178C233.226 135.493 232.333 136.189 232.333 136.189C232.333 136.189 234.213 136.374 234.801 136.374C235.389 136.374 236.625 137.312 235.817 137.628C235.008 137.944 231.873 138.022 231.873 138.022C231.873 138.022 227.113 147.023 224.633 147.661C222.153 148.299 218.735 144.69 218.735 144.69L221.702 141.057Z" fill="#FDE7E6"/>
<path d="M197.52 141.222C197.52 141.222 196.527 143.254 195.628 142.767C194.729 142.279 189.683 136.958 189.683 136.958C189.683 136.958 188.002 135.929 187.592 136.114C187.181 136.299 188.194 136.958 188.194 136.958C188.194 136.958 185.721 137.159 185.256 137.346C184.791 137.533 184.25 138.106 184.953 138.366C185.656 138.627 188.348 138.812 188.348 138.812C188.348 138.812 192.089 146.206 194.924 147.071C197.759 147.936 200.175 144.529 200.175 144.529L197.52 141.222Z" fill="#FDE7E6"/>
<path d="M206.699 134.999V131.367C206.699 131.367 204.815 131.462 204.05 130.201C203.284 128.939 203.077 125.36 203.077 125.36L203.654 123.701L209.327 123.461L212.308 126.001L210.92 128.452L210.656 128.923L211.978 134.493L206.699 134.999Z" fill="#FDE7E6"/>
<mask id="mask2_347_8062" style="mask-type:luminance" maskUnits="userSpaceOnUse" x="203" y="123" width="10" height="12">
<path d="M206.699 134.999V131.367C206.699 131.367 204.815 131.462 204.05 130.201C203.284 128.939 203.077 125.36 203.077 125.36L203.654 123.701L209.327 123.461L212.308 126.001L210.92 128.452L210.656 128.923L211.978 134.493L206.699 134.999Z" fill="white"/>
</mask>
<g mask="url(#mask2_347_8062)">
<path d="M210.389 127.914C208.712 129.999 205.812 131.456 205.435 131.456C205.057 131.456 207.543 134.071 207.543 134.071L209.566 134.999L212.437 134.39L213.462 131.456L211.652 128.127C211.652 128.127 212.065 125.828 210.389 127.914Z" fill="url(#paint14_linear_347_8062)"/>
</g>
<path d="M196.313 142.684L199.101 146.439L200.88 144.561C200.88 144.561 199.527 151.976 199.101 155.532C198.676 159.088 198.597 162.63 198.597 162.63C198.597 162.63 203.061 164.287 206.389 164.566C209.716 164.845 217.464 164.127 217.464 164.127L216.464 143.255L219.365 145.949L222.772 142.015C222.772 142.015 216.907 133.002 215.798 132.477C214.689 131.952 211.606 132.477 211.606 132.477C211.606 132.477 209.418 135.066 208.531 135.103C207.644 135.139 205.676 132.477 205.676 132.477C205.676 132.477 202.532 131.975 201.618 133.002C200.704 134.03 196.313 142.684 196.313 142.684Z" fill="url(#paint15_linear_347_8062)"/>
<path d="M203.077 125.401C203.077 125.401 203.746 123.713 204.618 124.007C205.444 124.286 206.16 124.948 207.187 125.258C208.215 125.569 208.328 124.173 209.027 124.409C209.725 124.644 209.264 126.698 209.756 127.08C210.248 127.463 210.248 124.409 211.298 125.231C212.347 126.053 210.203 128.367 210.203 128.367C210.203 128.367 210.478 129.79 210.566 129.886C210.654 129.983 210.644 128.852 210.644 128.852C210.644 128.852 211.646 128.467 212.073 126.732C212.5 124.997 212.685 124.307 212.073 123.046C211.461 121.786 211.287 120.798 209.756 120.204C208.225 119.609 207.064 119.842 205.994 120.204C204.924 120.566 204.149 121.285 203.654 122.001C202.5 123.7 203.077 125.401 203.077 125.401Z" fill="#4D364F"/>
<defs>
<linearGradient id="paint0_linear_347_8062" x1="170.913" y1="190.096" x2="170.913" y2="148.378" gradientUnits="userSpaceOnUse">
<stop stop-color="#F7F7F7"/>
<stop offset="1" stop-color="#E8EAEB"/>
</linearGradient>
<linearGradient id="paint1_linear_347_8062" x1="94.8018" y1="68.8438" x2="94.8018" y2="207.603" gradientUnits="userSpaceOnUse">
<stop stop-color="white"/>
<stop offset="0.746404" stop-color="white"/>
<stop offset="1" stop-color="white" stop-opacity="0.697577"/>
</linearGradient>
<linearGradient id="paint2_linear_347_8062" x1="102.337" y1="79.707" x2="102.337" y2="141.202" gradientUnits="userSpaceOnUse">
<stop stop-color="#E8EAEB"/>
<stop offset="1" stop-color="#F0F1F1"/>
</linearGradient>
<linearGradient id="paint3_linear_347_8062" x1="102.687" y1="150.84" x2="102.687" y2="160.301" gradientUnits="userSpaceOnUse">
<stop stop-color="#EAECEC"/>
<stop offset="1" stop-color="#F0F1F1"/>
</linearGradient>
<linearGradient id="paint4_linear_347_8062" x1="102.687" y1="172.914" x2="102.687" y2="182.375" gradientUnits="userSpaceOnUse">
<stop stop-color="#EAECEC"/>
<stop offset="1" stop-color="#F0F1F1"/>
</linearGradient>
<linearGradient id="paint5_linear_347_8062" x1="156.729" y1="153.996" x2="177.612" y2="132.692" gradientUnits="userSpaceOnUse">
<stop stop-color="#144C7F"/>
<stop offset="1" stop-color="#1C6DB6"/>
</linearGradient>
<linearGradient id="paint6_linear_347_8062" x1="121.962" y1="143.001" x2="167.025" y2="97.0282" gradientUnits="userSpaceOnUse">
<stop stop-color="#144C7F"/>
<stop offset="1" stop-color="#1C6DB6"/>
</linearGradient>
<linearGradient id="paint7_linear_347_8062" x1="156.331" y1="110.12" x2="141.716" y2="127.081" gradientUnits="userSpaceOnUse">
<stop stop-color="#EEEEEE" stop-opacity="0.367499"/>
<stop offset="1" stop-color="#D8D8D8" stop-opacity="0.01"/>
</linearGradient>
<radialGradient id="paint8_radial_347_8062" cx="0" cy="0" r="1" gradientUnits="userSpaceOnUse" gradientTransform="translate(130.111 223.861) rotate(-90) scale(51.3403 536.198)">
<stop stop-color="#EBEDF0" stop-opacity="0.24"/>
<stop offset="0.536775" stop-color="#EBEDF0" stop-opacity="0.845525"/>
<stop offset="1" stop-color="#E0E4E7" stop-opacity="0.01"/>
</radialGradient>
<linearGradient id="paint9_linear_347_8062" x1="126.305" y1="209.071" x2="128.707" y2="214.208" gradientUnits="userSpaceOnUse">
<stop stop-color="#E1E7EA"/>
<stop offset="1" stop-color="#D0D6DC"/>
</linearGradient>
<linearGradient id="paint10_linear_347_8062" x1="189.845" y1="226.061" x2="194.241" y2="235.23" gradientUnits="userSpaceOnUse">
<stop stop-color="#E1E7EA"/>
<stop offset="1" stop-color="#D0D6DC"/>
</linearGradient>
<linearGradient id="paint11_linear_347_8062" x1="50.7703" y1="208.592" x2="53.2577" y2="218.501" gradientUnits="userSpaceOnUse">
<stop stop-color="#FBFBFB"/>
<stop offset="1" stop-color="#D9DFE3"/>
</linearGradient>
<linearGradient id="paint12_linear_347_8062" x1="192.74" y1="211.137" x2="204.035" y2="229.628" gradientUnits="userSpaceOnUse">
<stop stop-color="#B7BFC3"/>
<stop offset="0.487221" stop-color="#D9E2E6"/>
<stop offset="1" stop-color="#E6EDF3" stop-opacity="0.01"/>
</linearGradient>
<linearGradient id="paint13_linear_347_8062" x1="199.746" y1="204.348" x2="230.585" y2="189.4" gradientUnits="userSpaceOnUse">
<stop stop-color="#144C7F"/>
<stop offset="1" stop-color="#1C6DB6"/>
</linearGradient>
<linearGradient id="paint14_linear_347_8062" x1="211.183" y1="132.559" x2="211.183" y2="129.039" gradientUnits="userSpaceOnUse">
<stop stop-color="#FBD8D6"/>
<stop offset="1" stop-color="#EAC0BE" stop-opacity="0.7"/>
</linearGradient>
<linearGradient id="paint15_linear_347_8062" x1="182.928" y1="147.022" x2="210.746" y2="176.367" gradientUnits="userSpaceOnUse">
<stop stop-color="#E5E9F0"/>
<stop offset="1" stop-color="#D2DAE8"/>
</linearGradient>
</defs>
</svg>
