<svg width="20" height="20" viewBox="0 0 20 20" fill="none" xmlns="http://www.w3.org/2000/svg">
<g clip-path="url(#clip0_348_338)">
<path d="M17.6747 13.243C17.1445 14.4967 16.3153 15.6015 15.2596 16.4607C14.2038 17.32 12.9537 17.9075 11.6184 18.172C10.2831 18.4364 8.90337 18.3698 7.59981 17.9778C6.29624 17.5858 5.10854 16.8805 4.14053 15.9235C3.17253 14.9665 2.4537 13.7869 2.04688 12.4879C1.64006 11.1889 1.55765 9.81004 1.80685 8.47183C2.05605 7.13362 2.62926 5.87683 3.47639 4.81133C4.32351 3.74583 5.41875 2.90407 6.66635 2.35964M18.333 10.0013C18.333 8.90695 18.1175 7.82332 17.6987 6.81227C17.2799 5.80123 16.6661 4.88257 15.8922 4.10875C15.1184 3.33492 14.1998 2.7211 13.1887 2.30231C12.1777 1.88352 11.094 1.66797 9.99968 1.66797V10.0013H18.333Z" stroke="#344054" stroke-width="1.67" stroke-linecap="round" stroke-linejoin="round"/>
</g>
<defs>
<clipPath id="clip0_348_338">
<rect width="20" height="20" fill="white"/>
</clipPath>
</defs>
</svg>
